<?xml version="1.0" encoding="UTF-8" standalone="no"?>
<svg
   width="48"
   height="48"
   viewBox="0 0 48 48"
   version="1.1"
   id="svg1"
   sodipodi:docname="autolab-icon.svg"
   inkscape:version="1.3 (0e150ed6c4, 2023-07-21)"
   xmlns:inkscape="http://www.inkscape.org/namespaces/inkscape"
   xmlns:sodipodi="http://sodipodi.sourceforge.net/DTD/sodipodi-0.dtd"
   xmlns="http://www.w3.org/2000/svg"
   xmlns:svg="http://www.w3.org/2000/svg">
  <defs
     id="defs1" />
  <sodipodi:namedview
     id="namedview1"
     pagecolor="#ffffff"
     bordercolor="#666666"
     borderopacity="1.0"
     inkscape:showpageshadow="2"
     inkscape:pageopacity="0.0"
     inkscape:pagecheckerboard="0"
     inkscape:deskcolor="#d1d1d1"
     inkscape:zoom="8"
     inkscape:cx="38.375"
     inkscape:cy="3.9375"
     inkscape:window-width="1920"
     inkscape:window-height="1017"
     inkscape:window-x="-8"
     inkscape:window-y="-8"
     inkscape:window-maximized="1"
     inkscape:current-layer="svg1" />
  <rect
     style="display:inline;fill:#90d0ea;fill-opacity:1;stroke:none;stroke-width:0.377952;stroke-dasharray:none;stroke-opacity:1"
     id="rect23"
     width="48.000004"
     height="48.000004"
     x="0"
     y="0"
     ry="8.875" />
  <g
     id="rect56-2">
    <path
       style="color:#000000;fill:#ffffff;-inkscape-stroke:none"
       d="M 7.9190003,10.161724 H 40.081 c 0.855824,0 1.544809,0.688985 1.544809,1.544809 v 21.194588 c 0,0.855825 -0.688985,1.544809 -1.544809,1.544809 H 7.9190003 c -0.8558242,0 -1.544809,-0.688984 -1.544809,-1.544809 V 11.706533 c 0,-0.855824 0.6889848,-1.544809 1.544809,-1.544809 z"
       id="path3" />
    <path
       style="color:#000000;fill:#000000;-inkscape-stroke:none"
       d="M 7.9199219,9.3496094 C 6.628028,9.3496094 5.5625,10.415137 5.5625,11.707031 v 21.19336 c 0,1.291894 1.065528,2.357421 2.3574219,2.357421 H 40.080078 c 1.291894,0 2.357422,-1.065527 2.357422,-2.357421 v -21.19336 c 0,-1.291894 -1.065528,-2.3574216 -2.357422,-2.3574216 z m 0,1.6249996 H 40.080078 c 0.419753,0 0.732422,0.312669 0.732422,0.732422 v 21.19336 c 0,0.419752 -0.312669,0.732421 -0.732422,0.732421 H 7.9199219 C 7.5001691,33.632812 7.1875,33.320143 7.1875,32.900391 v -21.19336 c 0,-0.419753 0.3126691,-0.732422 0.7324219,-0.732422 z"
       id="path4" />
  </g>
  <rect
     style="display:inline;fill:#000000;fill-opacity:1;stroke-width:0.842296"
     id="rect7"
     width="7.0970187"
     height="2.2355433"
     x="20.413593"
     y="34.653782" />
  <g
     id="rect6">
    <path
       style="color:#000000;fill:#ffffff;-inkscape-stroke:none"
       d="m 14.858546,36.889328 h 18.207112 c 0.125116,0 0.22584,0.100725 0.22584,0.22584 v 2.616879 c 0,0.125116 -0.100724,0.22584 -0.22584,0.22584 H 14.858546 c -0.125116,0 -0.22584,-0.100724 -0.22584,-0.22584 v -2.616879 c 0,-0.125115 0.100724,-0.22584 0.22584,-0.22584 z"
       id="path1" />
    <path
       style="color:#000000;fill:#000000;-inkscape-stroke:none"
       d="m 14.859375,36.076172 c -0.561186,0 -1.039062,0.477877 -1.039062,1.039062 v 2.617188 c 0,0.561186 0.477876,1.037109 1.039062,1.037109 h 18.207031 c 0.561186,0 1.03711,-0.475923 1.03711,-1.037109 v -2.617188 c 0,-0.561185 -0.475924,-1.039062 -1.03711,-1.039062 z m 0.585938,1.625 h 17.033203 v 1.443359 H 15.445313 Z"
       id="path2" />
  </g>
  <rect
     style="fill:#ffffff;fill-opacity:1;stroke-width:0.822046"
     id="rect54"
     width="3.8503354"
     height="4.8746743"
     x="22.036934"
     y="33.114719" />
  <path
     style="color:#000000;fill:#000000;stroke-linejoin:round;-inkscape-stroke:none;paint-order:markers stroke fill"
     d="m 28.021484,12.378906 a 1.0241174,1.0241174 0 0 0 -1.080078,0.835938 C 26.23027,17.070653 25.819805,23.844236 24.375,27.53125 c -0.03458,0.08824 -0.02002,0.07501 -0.140625,0.126953 -0.120604,0.05194 -0.381914,0.105041 -0.726563,0.111328 -0.49056,0.0089 -1.172238,-0.06509 -1.822265,-0.117187 L 17.753906,15.421875 a 1.0241174,1.0241174 0 0 0 -1.919922,-0.08203 l -5.751953,13.728515 1.888672,0.791016 4.681641,-11.169922 3.294922,10.253906 a 1.0241174,1.0241174 0 0 0 0.951171,0.708985 c 0.683307,0.0159 1.666619,0.181939 2.646485,0.164062 0.489933,-0.0089 0.994443,-0.05962 1.5,-0.277344 0.505556,-0.217726 1.005432,-0.66751 1.238281,-1.261718 0.463029,-1.18161 0.810192,-2.559437 1.103516,-3.998047 l 0.240234,5.644531 a 1.0241174,1.0241174 0 0 0 1.490234,0.867188 c 2.887117,-1.480541 5.516075,-1.770854 8.800782,-1.847657 l -0.04687,-2.046875 c -2.878675,0.06731 -5.532431,0.486556 -8.25586,1.583985 l -0.642578,-15.125 a 1.0241174,1.0241174 0 0 0 -0.951172,-0.976563 z"
     id="path48-9" />
</svg>
