<?xml version="1.0" encoding="UTF-8" standalone="no"?>
<!-- Creator: CorelDRAW -->

<svg
   xml:space="preserve"
   width="4.1059871in"
   height="5.217in"
   style="clip-rule:evenodd;fill-rule:evenodd;image-rendering:optimizeQuality;shape-rendering:geometricPrecision;text-rendering:geometricPrecision"
   viewBox="0 0 4.105987 5.2169998"
   version="1.1"
   id="svg10"
   sodipodi:docname="config-icon.svg"
   inkscape:version="1.3 (0e150ed6c4, 2023-07-21)"
   xmlns:inkscape="http://www.inkscape.org/namespaces/inkscape"
   xmlns:sodipodi="http://sodipodi.sourceforge.net/DTD/sodipodi-0.dtd"
   xmlns="http://www.w3.org/2000/svg"
   xmlns:svg="http://www.w3.org/2000/svg"><sodipodi:namedview
   id="namedview10"
   pagecolor="#ffffff"
   bordercolor="#666666"
   borderopacity="1.0"
   inkscape:showpageshadow="2"
   inkscape:pageopacity="0.0"
   inkscape:pagecheckerboard="0"
   inkscape:deskcolor="#d1d1d1"
   inkscape:document-units="in"
   inkscape:zoom="0.62637389"
   inkscape:cx="380.763"
   inkscape:cy="435.04368"
   inkscape:window-width="1920"
   inkscape:window-height="1017"
   inkscape:window-x="1912"
   inkscape:window-y="-8"
   inkscape:window-maximized="1"
   inkscape:current-layer="Layer_x0020_1" />&#10; <defs
   id="defs1">&#10;  <style
   type="text/css"
   id="style1">&#10;   <![CDATA[
    .fil6 {fill:none}
    .fil3 {fill:#8196A0}
    .fil2 {fill:#90A4AE}
    .fil1 {fill:#D3DADE}
    .fil0 {fill:#DDE2E4}
    .fil5 {fill:#DDE3E7}
    .fil4 {fill:#EDEFF0}
   ]]>&#10;  </style>&#10; </defs>&#10; <g
   id="Layer_x0020_1"
   inkscape:label="Layer 1"
   inkscape:groupmode="layer">&#10;  <metadata
   id="CorelCorpID_0Corel-Layer" />&#10;  <g
   id="Guides">&#10;  </g>&#10;  <g
   id="Layer_2">&#10;  </g>&#10;  <g
   id="Layer_3">&#10;  </g>&#10;  <g
   id="Layer_4">&#10;  </g>&#10;  <g
   id="Layer_5">&#10;  </g>&#10;  <g
   id="Layer_6">&#10;  </g>&#10;  <g
   id="Layer_7">&#10;  </g>&#10;  <g
   id="Layer_8">&#10;  </g>&#10;  <g
   id="Layer_9">&#10;  </g>&#10;  <g
   id="Layer_10">&#10;  </g>&#10;  <g
   id="Layer_11">&#10;  </g>&#10;  <g
   id="Layer_12">&#10;  </g>&#10;  <g
   id="Layer_13">&#10;  </g>&#10;  <g
   id="Layer_14">&#10;  </g>&#10;  <rect
   class="fil0"
   x="0.20833331"
   y="0.20833331"
   width="3.6893301"
   height="4.7999902"
   id="rect1" />&#10;  <rect
   class="fil1"
   x="2.0529935"
   y="0.20833331"
   width="1.84466"
   height="4.7999902"
   id="rect2" />&#10;  <path
   class="fil2"
   d="M 3.269853,3.521753 H 0.83613327 c -0.044165,0 -0.08,-0.035835 -0.08,-0.08 0,-0.044165 0.035835,-0.08 0.08,-0.08 H 3.269853 c 0.044165,0 0.08,0.035835 0.08,0.08 0,0.044165 -0.035831,0.08 -0.08,0.08 z"
   id="path2" />&#10;  <path
   class="fil2"
   d="M 3.269853,4.593853 H 0.83613327 c -0.044165,0 -0.08,-0.035835 -0.08,-0.08 0,-0.044165 0.035835,-0.08 0.08,-0.08 H 3.269853 c 0.044165,0 0.08,0.035835 0.08,0.08 0,0.044165 -0.035831,0.08 -0.08,0.08 z"
   id="path3" />&#10;  <path
   class="fil2"
   d="M 3.269853,4.057823 H 0.83613327 c -0.044165,0 -0.08,-0.035835 -0.08,-0.08 0,-0.044165 0.035835,-0.08 0.08,-0.08 H 3.269853 c 0.044165,0 0.08,0.035835 0.08,0.08 0,0.044165 -0.035831,0.08 -0.08,0.08 z"
   id="path4" />&#10;  <path
   class="fil3"
   d="m 3.269853,3.521753 h -1.21687 v -0.16 h 1.21687 c 0.044165,0 0.08,0.035835 0.08,0.08 v 0 c 0,0.044201 -0.035831,0.08 -0.08,0.08 z"
   id="path5" />&#10;  <path
   class="fil3"
   d="m 3.269853,4.057823 h -1.21687 v -0.16 h 1.21687 c 0.044165,0 0.08,0.035835 0.08,0.08 v 0 c 0,0.044165 -0.035831,0.08 -0.08,0.08 z"
   id="path6" />&#10;  <path
   class="fil3"
   d="m 3.269853,4.593853 h -1.21687 v -0.16 h 1.21687 c 0.044165,0 0.08,0.035835 0.08,0.08 v 0 c 0,0.044201 -0.035831,0.08 -0.08,0.08 z"
   id="path7" />&#10;  <path
   class="fil2"
   d="M 3.129353,1.994393 V 1.69633 L 2.876719,1.668129 C 2.85675,1.563794 2.81742,1.466361 2.762652,1.379629 L 2.924786,1.1767631 2.714018,0.9659953 2.513853,1.1259641 C 2.4291876,1.0701652 2.333786,1.0292991 2.231451,1.0071295 L 2.202018,0.7432635 H 1.903959 L 1.874526,1.0071295 C 1.775557,1.0285975 1.683061,1.0674954 1.600495,1.1204954 L 1.384428,0.9477945 1.17366,1.1585623 1.346428,1.3747272 c -0.051165,0.079799 -0.089165,0.168866 -0.111,0.264098 l -0.28449973,0.031732 v 0.298067 L 1.232196,2.0000262 c 0.019768,0.094197 0.055366,0.182563 0.103835,0.262228 l -0.1805669,0.225933 0.2107679,0.210768 0.219567,-0.1755 c 0.078598,0.052799 0.166598,0.092665 0.261,0.116531 l 0.031433,0.281701 h 0.298059 l 0.030134,-0.270201 c 0.099433,-0.018402 0.192732,-0.054335 0.276567,-0.104469 l 0.212835,0.170098 0.210768,-0.210768 -0.162866,-0.203768 c 0.057532,-0.083366 0.100366,-0.177665 0.124732,-0.27913 l 0.260894,-0.029059 z"
   id="path8" />&#10;  <path
   class="fil3"
   d="M 3.129353,1.994393 V 1.69633 L 2.876719,1.668129 C 2.85675,1.563794 2.81742,1.466361 2.762652,1.379629 L 2.924786,1.1767631 2.714018,0.9659953 2.513853,1.1259641 C 2.4291876,1.0701652 2.333786,1.0292991 2.231451,1.0071295 L 2.202018,0.7432635 H 2.052987 v 2.1784597 h 0.123335 l 0.030134,-0.270201 c 0.099433,-0.018402 0.192732,-0.054335 0.276567,-0.104469 l 0.212835,0.170098 0.210768,-0.210768 -0.162835,-0.203768 c 0.057532,-0.083366 0.100366,-0.177665 0.124732,-0.27913 l 0.260831,-0.029094 z"
   id="path9" />&#10;  <circle
   class="fil4"
   cx="2.0529935"
   cy="1.8268237"
   r="0.439964"
   id="circle9" />&#10;  <path
   class="fil5"
   d="m 2.052993,1.386863 v 0.879929 c 0.243,0 0.439965,-0.196965 0.439965,-0.439961 3.9e-6,-0.243 -0.196996,-0.439969 -0.439965,-0.439968 z"
   id="path10" />&#10;  <g
   id="Layer_16">&#10;  </g>&#10;  <g
   id="Layer_17">&#10;  </g>&#10;  <g
   id="Layer_18">&#10;  </g>&#10;  <g
   id="Layer_19">&#10;  </g>&#10;  <g
   id="Layer_20">&#10;  </g>&#10;  <g
   id="Layer_21">&#10;  </g>&#10;  <g
   id="Layer_22">&#10;  </g>&#10;  <g
   id="Layer_23">&#10;  </g>&#10;  <g
   id="Layer_24">&#10;  </g>&#10;  <g
   id="Layer_25">&#10;  </g>&#10;  <g
   id="Layer_26">&#10;  </g>&#10; </g>&#10; <rect
   class="fil6"
   width="6.8266602"
   height="6.8266602"
   id="rect10"
   x="0"
   y="0" />&#10;</svg>
