<?xml version="1.0" encoding="UTF-8" standalone="no"?>
<!-- Creator: CorelDRAW -->

<svg
   xml:space="preserve"
   width="48"
   height="48"
   style="clip-rule:evenodd;fill-rule:evenodd;image-rendering:optimizeQuality;shape-rendering:geometricPrecision;text-rendering:geometricPrecision"
   viewBox="0 0 0.50000002 0.49999997"
   version="1.1"
   id="svg10"
   sodipodi:docname="config-icon.svg"
   inkscape:version="1.3 (0e150ed6c4, 2023-07-21)"
   xmlns:inkscape="http://www.inkscape.org/namespaces/inkscape"
   xmlns:sodipodi="http://sodipodi.sourceforge.net/DTD/sodipodi-0.dtd"
   xmlns="http://www.w3.org/2000/svg"
   xmlns:svg="http://www.w3.org/2000/svg"><sodipodi:namedview
   id="namedview10"
   pagecolor="#ffffff"
   bordercolor="#666666"
   borderopacity="1.0"
   inkscape:showpageshadow="2"
   inkscape:pageopacity="0.0"
   inkscape:pagecheckerboard="0"
   inkscape:deskcolor="#d1d1d1"
   inkscape:document-units="in"
   inkscape:zoom="14.173223"
   inkscape:cx="29.774455"
   inkscape:cy="20.566952"
   inkscape:window-width="1920"
   inkscape:window-height="1017"
   inkscape:window-x="-8"
   inkscape:window-y="-8"
   inkscape:window-maximized="1"
   inkscape:current-layer="Layer_x0020_1" />&#10; <defs
   id="defs1">&#10;  <style
   type="text/css"
   id="style1">&#10;   <![CDATA[
    .fil6 {fill:none}
    .fil3 {fill:#8196A0}
    .fil2 {fill:#90A4AE}
    .fil1 {fill:#D3DADE}
    .fil0 {fill:#DDE2E4}
    .fil5 {fill:#DDE3E7}
    .fil4 {fill:#EDEFF0}
   ]]>&#10;  </style>&#10; </defs>&#10; <g
   id="Layer_x0020_1"
   inkscape:label="Layer 1"
   inkscape:groupmode="layer">&#10;  <metadata
   id="CorelCorpID_0Corel-Layer" />&#10;  &#10;  &#10;  &#10;  &#10;  &#10;  &#10;  &#10;  &#10;  &#10;  &#10;  &#10;  &#10;  &#10;  &#10;  <rect
   class="fil0"
   x="0.066428863"
   y="0.0082961619"
   width="0.37155291"
   height="0.48340768"
   id="rect1"
   style="fill:#c6ced2;fill-opacity:1;stroke-width:0.10071" />&#10;  &#10;  <path
   class="fil2"
   d="M 0.37475489,0.34199114 H 0.12965468 c -0.004447,0 -0.008056,-0.003609 -0.008056,-0.008056 0,-0.004447 0.003609,-0.008056 0.008056,-0.008056 h 0.24510021 c 0.004447,0 0.008056,0.003609 0.008056,0.008056 0,0.004447 -0.003609,0.008056 -0.008056,0.008056 z"
   id="path2"
   style="fill:#566b76;fill-opacity:1;stroke-width:0.10071" />&#10;  <path
   class="fil2"
   d="M 0.37475489,0.44996251 H 0.12965468 c -0.004447,0 -0.008056,-0.003609 -0.008056,-0.008056 0,-0.004447 0.003609,-0.008056 0.008056,-0.008056 h 0.24510021 c 0.004447,0 0.008056,0.003609 0.008056,0.008056 0,0.004447 -0.003609,0.008056 -0.008056,0.008056 z"
   id="path3"
   style="fill:#566b76;fill-opacity:1;stroke-width:0.10071" />&#10;  <path
   class="fil2"
   d="M 0.37475489,0.39597885 H 0.12965468 c -0.004447,0 -0.008056,-0.003609 -0.008056,-0.008056 0,-0.004447 0.003609,-0.008056 0.008056,-0.008056 h 0.24510021 c 0.004447,0 0.008056,0.003609 0.008056,0.008056 0,0.004447 -0.003609,0.008056 -0.008056,0.008056 z"
   id="path4"
   style="fill:#566b76;fill-opacity:1;stroke-width:0.10071" />&#10;  &#10;  &#10;  &#10;  <path
   class="fil2"
   d="M 0.3606051,0.18817056 V 0.15815236 L 0.3351626,0.15531136 C 0.3331496,0.14480456 0.3291906,0.13499106 0.3236753,0.12625656 L 0.3400038,0.10582596 0.3187774,0.08459958 0.2986187,0.10071008 C 0.2900917,0.09508948 0.280484,0.09097528 0.2701779,0.08874198 L 0.2672129,0.06216812 H 0.2371951 L 0.2342311,0.08874198 C 0.2242641,0.09090328 0.2149483,0.09482178 0.2066336,0.10015902 L 0.1848724,0.08276648 0.163646,0.10399286 0.1810454,0.12576316 c -0.005153,0.008036 -0.008981,0.0170064 -0.0111781,0.0265971 l -0.0286519,0.003197 v 0.0300182 l 0.0283267,0.003162 c 0.001992,0.009486 0.005575,0.018386 0.0104576,0.0264088 l -0.0181847,0.0227537 0.0212264,0.0212264 0.0221128,-0.0176747 c 0.007916,0.005317 0.0167782,0.009333 0.0262854,0.0117358 l 0.003168,0.0283703 h 0.0300178 l 0.003034,-0.0272119 c 0.0100137,-0.001855 0.0194101,-0.005472 0.0278533,-0.0105209 l 0.0214347,0.0171307 0.0212264,-0.0212264 -0.016402,-0.0205216 c 0.005794,-0.008396 0.0101074,-0.0178928 0.0125617,-0.0281111 l 0.0262744,-0.002925 z"
   id="path8"
   style="fill:#414f58;fill-opacity:1;stroke-width:0.10071" />&#10;  &#10;  <circle
   class="fil4"
   cx="0.25220481"
   cy="0.1712945"
   r="0.04430883"
   id="circle9"
   style="stroke-width:0.10071" />&#10;  &#10;  &#10;  &#10;  &#10;  &#10;  &#10;  &#10;  &#10;  &#10;  &#10;  &#10;  &#10; </g>&#10; &#10;</svg>
