<?xml version="1.0" encoding="UTF-8" standalone="no"?>
<svg
   version="1.2"
   viewBox="0 0 48 48"
   id="svg50"
   sodipodi:docname="copy-icon.svg"
   width="48"
   height="48"
   inkscape:version="1.3 (0e150ed6c4, 2023-07-21)"
   xmlns:inkscape="http://www.inkscape.org/namespaces/inkscape"
   xmlns:sodipodi="http://sodipodi.sourceforge.net/DTD/sodipodi-0.dtd"
   xmlns="http://www.w3.org/2000/svg"
   xmlns:svg="http://www.w3.org/2000/svg">
  <sodipodi:namedview
     id="namedview50"
     pagecolor="#ffffff"
     bordercolor="#666666"
     borderopacity="1.0"
     inkscape:showpageshadow="2"
     inkscape:pageopacity="0.0"
     inkscape:pagecheckerboard="0"
     inkscape:deskcolor="#d1d1d1"
     inkscape:zoom="8.0000004"
     inkscape:cx="36.687498"
     inkscape:cy="43.874998"
     inkscape:window-width="1419"
     inkscape:window-height="1038"
     inkscape:window-x="485"
     inkscape:window-y="0"
     inkscape:window-maximized="0"
     inkscape:current-layer="svg50" />
  <defs
     id="defs1" />
  <rect
     style="fill:#ffffff;stroke-width:0.444;stroke-linecap:square;stroke-linejoin:round;paint-order:markers stroke fill"
     id="rect2"
     width="23.266428"
     height="29.676554"
     x="6.3159442"
     y="5.395617" />
  <path
     style="color:#000000;fill:#000000;fill-rule:evenodd;stroke:none;stroke-width:0.594403;stroke-linecap:round;stroke-linejoin:round;stroke-dasharray:none;stroke-opacity:1"
     d="M 4.7687007,3.3442239 C 4.4994142,3.3440817 4.2810784,3.5624168 4.281222,3.8317041 V 36.630243 c -1.436e-4,0.269287 0.2181922,0.487622 0.4874787,0.48748 H 31.154618 c 0.269284,1.44e-4 0.487625,-0.218192 0.48748,-0.48748 V 3.8317041 c 1.45e-4,-0.269288 -0.218196,-0.4876245 -0.48748,-0.4874802 z m 1.5472432,2.0513932 23.2664291,0.00584 v 29.670711 l -23.2664291,-0.0058 z"
     id="path2"
     sodipodi:nodetypes="cccccccccccccc" />
  <rect
     style="fill:#ffffff;stroke-width:0.444;stroke-linecap:square;stroke-linejoin:round;paint-order:markers stroke fill"
     id="rect1"
     width="24.963659"
     height="31.841389"
     x="15.822467"
     y="10.832439" />
  <path
     style="color:#000000;fill:#000000;fill-rule:evenodd;stroke:none;stroke-width:0.594403;stroke-linecap:round;stroke-linejoin:round;stroke-dasharray:none;stroke-opacity:1"
     d="M 14.162355,8.6314024 C 13.873425,8.6312499 13.639162,8.865512 13.639316,9.1544432 V 44.345557 c -1.54e-4,0.288931 0.234109,0.523193 0.523039,0.523041 h 28.310707 c 0.288929,1.54e-4 0.523197,-0.234109 0.523042,-0.523041 V 9.1544432 C 42.996259,8.8655113 42.761991,8.6312476 42.473062,8.6314024 Z m 1.660112,2.2010376 24.963659,0.0062 v 31.835138 l -24.963659,-0.0063 z"
     id="rect60"
     sodipodi:nodetypes="cccccccccccccc" />
</svg>
