<?xml version="1.0" encoding="UTF-8" standalone="no"?>
<!-- Created with Inkscape (http://www.inkscape.org/) -->

<svg
   width="48"
   height="48"
   viewBox="0 0 12.7 12.7"
   version="1.1"
   id="svg1"
   inkscape:version="1.3 (0e150ed6c4, 2023-07-21)"
   sodipodi:docname="disconnect-icon.svg"
   xmlns:inkscape="http://www.inkscape.org/namespaces/inkscape"
   xmlns:sodipodi="http://sodipodi.sourceforge.net/DTD/sodipodi-0.dtd"
   xmlns="http://www.w3.org/2000/svg"
   xmlns:svg="http://www.w3.org/2000/svg">
  <sodipodi:namedview
     id="namedview1"
     pagecolor="#ffffff"
     bordercolor="#666666"
     borderopacity="1.0"
     inkscape:showpageshadow="2"
     inkscape:pageopacity="0.0"
     inkscape:pagecheckerboard="0"
     inkscape:deskcolor="#d1d1d1"
     inkscape:document-units="mm"
     inkscape:zoom="11.702245"
     inkscape:cx="20.508886"
     inkscape:cy="34.13875"
     inkscape:window-width="1920"
     inkscape:window-height="1017"
     inkscape:window-x="-8"
     inkscape:window-y="-8"
     inkscape:window-maximized="1"
     inkscape:current-layer="layer1" />
  <defs
     id="defs1" />
  <g
     inkscape:label="Calque 1"
     inkscape:groupmode="layer"
     id="layer1">
    <path
       style="color:#000000;fill:#000000;stroke-width:0.3224;-inkscape-stroke:none"
       d="M 3.6663109,5.2999381 2.3310356,6.6156523 C 1.8964702,7.0438526 1.3874039,7.5319361 1.1885322,8.2974646 0.98966153,9.0629899 1.0735496,10.02146 1.7053611,10.66833 2.3371728,11.3152 3.292968,11.418735 4.0624715,11.231178 4.8319778,11.04362 5.3293399,10.538915 5.7515411,10.122898 L 5.0726906,9.4339553 C 4.6504887,9.849971 4.3044153,10.17695 3.8334104,10.291751 3.3624039,10.406553 2.6809166,10.282901 2.3969557,9.9921708 2.1129849,9.701453 2.0025705,9.0117761 2.1249189,8.5408119 2.2472668,8.0698504 2.5753196,7.7327951 3.0098858,7.3045953 L 4.3451606,5.9888811 Z"
       id="path3" />
    <path
       style="color:#000000;fill:#000000;stroke-width:0.3224;-inkscape-stroke:none"
       d="M 8.7489313,7.0798976 10.084207,5.7641837 C 10.518772,5.3359839 11.027838,4.8479001 11.226709,4.0823717 11.42558,3.3168461 11.341692,2.3583757 10.709881,1.7115062 10.078069,1.0646369 9.1222742,0.96110116 8.3527707,1.1486586 7.5832645,1.3362164 7.0859026,1.8409216 6.6637014,2.256938 L 7.3425516,2.9458807 C 7.7647535,2.529865 8.1108275,2.202886 8.5818324,2.0880856 c 0.4710062,-0.1148023 1.1524937,0.00885 1.4364546,0.2995791 0.28397,0.2907186 0.394385,0.9803947 0.272036,1.4513591 C 10.167976,4.3099853 9.8399232,4.6470407 9.405357,5.0752405 L 8.0700816,6.3909549 Z"
       id="path4" />
    <path
       style="color:#000000;fill:#000000;stroke-width:0.3224;-inkscape-stroke:none"
       d="m 5.1784025,1.6905635 -0.9020233,0.3495595 3.245218,8.374973 0.9020236,-0.34956 z"
       id="path5" />
  </g>
</svg>
