<?xml version="1.0" encoding="UTF-8" standalone="no"?>
<svg
   data-name="Layer 1"
   height="32"
   id="Layer_1"
   viewBox="0 0 32 32"
   width="32"
   version="1.1"
   sodipodi:docname="measure-icon.svg"
   inkscape:version="1.3 (0e150ed6c4, 2023-07-21)"
   xmlns:inkscape="http://www.inkscape.org/namespaces/inkscape"
   xmlns:sodipodi="http://sodipodi.sourceforge.net/DTD/sodipodi-0.dtd"
   xmlns="http://www.w3.org/2000/svg"
   xmlns:svg="http://www.w3.org/2000/svg">
  <sodipodi:namedview
     id="namedview2"
     pagecolor="#ffffff"
     bordercolor="#666666"
     borderopacity="1.0"
     inkscape:showpageshadow="2"
     inkscape:pageopacity="0.0"
     inkscape:pagecheckerboard="0"
     inkscape:deskcolor="#d1d1d1"
     inkscape:zoom="12.828125"
     inkscape:cx="15.902558"
     inkscape:cy="17.73447"
     inkscape:window-width="960"
     inkscape:window-height="1017"
     inkscape:window-x="944"
     inkscape:window-y="0"
     inkscape:window-maximized="0"
     inkscape:current-layer="Layer_1" />
  <defs
     id="defs1" />
  <path
     style="fill:#ffffff;stroke:none;stroke-width:1px;stroke-linecap:butt;stroke-linejoin:miter;stroke-opacity:1;fill-opacity:1"
     d="M 2.691716,17.495377 25.681852,5.8107989 29.307399,12.944288 6.3172627,24.628866 Z"
     id="path3" />
  <path
     style="color:#000000;fill:#000000;stroke-linejoin:round;-inkscape-stroke:none"
     d="m 0.81772488,16.110122 a 1.0427893,1.0427893 0 0 0 -0.45722285,1.402325 l 4.56976427,8.991296 a 1.0427893,1.0427893 0 0 0 1.402325,0.457222 L 31.182275,14.331285 a 1.0427893,1.0427893 0 0 0 0.457223,-1.402326 L 27.069734,3.9376635 A 1.0427893,1.0427893 0 0 0 25.667409,3.4804413 Z M 2.691716,17.495377 25.681852,5.8107989 29.307399,12.944288 6.3172627,24.628866 Z"
     id="rect1" />
  <path
     style="color:#000000;fill:#000000;stroke-width:1.14153;stroke-linejoin:round;-inkscape-stroke:none"
     d="m 4.9809707,15.231908 2.470046,4.859969 1.7829369,-0.906165 -2.470046,-4.859969 z"
     id="path1" />
  <path
     style="color:#000000;fill:#000000;stroke-width:1.14153;stroke-linejoin:round;-inkscape-stroke:none"
     d="m 9.9844869,12.688905 2.4700461,4.85997 1.782937,-0.906166 -2.470046,-4.859969 z"
     id="path2" />
  <path
     style="color:#000000;fill:#000000;stroke-width:1.14153;stroke-linejoin:round;-inkscape-stroke:none"
     d="m 14.988003,10.145903 2.470046,4.859969 1.782937,-0.906165 -2.470046,-4.8599696 z"
     id="path4" />
  <path
     style="color:#000000;fill:#000000;stroke-width:1.14153;stroke-linejoin:round;-inkscape-stroke:none"
     d="M 19.991519,7.6029004 22.461565,12.46287 24.244502,11.556704 21.774456,6.6967349 Z"
     id="path8" />
</svg>
