<?xml version="1.0" encoding="UTF-8" standalone="no"?>
<svg
   id="Layer_1"
   data-name="Layer 1"
   viewBox="0 0 48 48"
   version="1.1"
   sodipodi:docname="parameter-icon.svg"
   width="48"
   height="48"
   inkscape:version="1.3 (0e150ed6c4, 2023-07-21)"
   xmlns:inkscape="http://www.inkscape.org/namespaces/inkscape"
   xmlns:sodipodi="http://sodipodi.sourceforge.net/DTD/sodipodi-0.dtd"
   xmlns="http://www.w3.org/2000/svg"
   xmlns:svg="http://www.w3.org/2000/svg"
   xmlns:rdf="http://www.w3.org/1999/02/22-rdf-syntax-ns#"
   xmlns:cc="http://creativecommons.org/ns#"
   xmlns:dc="http://purl.org/dc/elements/1.1/">
  <sodipodi:namedview
     id="namedview9"
     pagecolor="#ffffff"
     bordercolor="#666666"
     borderopacity="1.0"
     inkscape:showpageshadow="2"
     inkscape:pageopacity="0.0"
     inkscape:pagecheckerboard="0"
     inkscape:deskcolor="#d1d1d1"
     inkscape:zoom="11.610693"
     inkscape:cx="35.226148"
     inkscape:cy="30.273817"
     inkscape:window-width="1920"
     inkscape:window-height="1017"
     inkscape:window-x="-8"
     inkscape:window-y="-8"
     inkscape:window-maximized="1"
     inkscape:current-layer="Layer_1" />
  <defs
     id="defs1">
    <style
       id="style1">.cls-1{fill:#231f20;}</style>
  </defs>
  <title
     id="title1">Wondicon - UI (Free)</title>
  <path
     class="cls-1"
     d="M 41.424966,12.352948 H 21.916547 a 1.222179,1.222179 0 0 1 0,-2.444358 h 19.508419 a 1.222179,1.222179 0 0 1 0,2.444358 z"
     id="path1"
     style="stroke-width:0.244436" />
  <path
     class="cls-1"
     d="M 12.0169,12.352948 H 7.052411 a 1.222179,1.222179 0 1 1 0,-2.444358 H 12.0169 a 1.222179,1.222179 0 0 1 0,2.444358 z"
     id="path2"
     style="stroke-width:0.244436" />
  <path
     class="cls-1"
     d="M 41.517846,36.796519 H 21.916547 a 1.22218,1.22218 0 0 1 0,-2.44436 h 19.601299 a 1.22218,1.22218 0 0 1 0,2.44436 z"
     id="path3"
     style="stroke-width:0.244436" />
  <path
     class="cls-1"
     d="M 12.0169,36.796519 H 7.052411 a 1.22218,1.22218 0 1 1 0,-2.44436 H 12.0169 a 1.22218,1.22218 0 0 1 0,2.44436 z"
     id="path4"
     style="stroke-width:0.244436" />
  <path
     class="cls-1"
     d="m 41.517846,24.574729 h -5.05737 a 1.2221786,1.2221786 0 0 1 0,-2.444353 h 5.05737 a 1.2221786,1.2221786 0 0 1 0,2.444353 z"
     id="path5"
     style="stroke-width:0.244436" />
  <path
     class="cls-1"
     d="M 26.560826,24.574729 H 6.959525 a 1.2221786,1.2221786 0 0 1 0,-2.444353 h 19.601301 a 1.2221786,1.2221786 0 0 1 0,2.444353 z"
     id="path6"
     style="stroke-width:0.244436" />
  <path
     class="cls-1"
     d="M 21.916547,17.195219 H 12.0169 A 1.2221786,1.2221786 0 0 1 10.794721,15.973041 V 6.0733944 A 1.2221786,1.2221786 0 0 1 12.0169,4.8512154 h 9.899647 a 1.2221786,1.2221786 0 0 1 1.222178,1.222179 v 9.8996466 a 1.2221786,1.2221786 0 0 1 -1.222178,1.222178 z m -8.677468,-2.444357 h 7.455289 V 7.2955734 h -7.455289 z"
     id="path7"
     style="stroke-width:0.244436" />
  <path
     class="cls-1"
     d="M 21.916547,41.746339 H 12.0169 a 1.2221786,1.2221786 0 0 1 -1.222179,-1.22217 v -9.89965 a 1.2221786,1.2221786 0 0 1 1.222179,-1.22218 h 9.899647 a 1.2221786,1.2221786 0 0 1 1.222178,1.22218 v 9.89965 a 1.2221786,1.2221786 0 0 1 -1.222178,1.22217 z m -8.677468,-2.44435 h 7.455289 v -7.45529 h -7.455289 z"
     id="path8"
     style="stroke-width:0.244436" />
  <path
     class="cls-1"
     d="m 36.460476,29.463449 h -9.89965 a 1.2221786,1.2221786 0 0 1 -1.22218,-1.22218 v -9.899646 a 1.2221786,1.2221786 0 0 1 1.22218,-1.222179 h 9.89965 a 1.2221786,1.2221786 0 0 1 1.22217,1.222179 v 9.899646 a 1.2221786,1.2221786 0 0 1 -1.22217,1.22218 z m -8.67747,-2.44436 h 7.45529 v -7.455288 h -7.45529 z"
     id="path9"
     style="stroke-width:0.244436" />
  <metadata
     id="metadata9">
    <rdf:RDF>
      <cc:Work
         rdf:about="">
        <dc:title>Wondicon - UI (Free)</dc:title>
      </cc:Work>
    </rdf:RDF>
  </metadata>
</svg>
