<?xml version="1.0" encoding="UTF-8" standalone="no"?>
<svg
   id="Layer_1"
   data-name="Layer 1"
   viewBox="0 0 48 48"
   version="1.1"
   sodipodi:docname="parameter-icon.svg"
   width="48"
   height="48"
   inkscape:version="1.3 (0e150ed6c4, 2023-07-21)"
   xmlns:inkscape="http://www.inkscape.org/namespaces/inkscape"
   xmlns:sodipodi="http://sodipodi.sourceforge.net/DTD/sodipodi-0.dtd"
   xmlns="http://www.w3.org/2000/svg"
   xmlns:svg="http://www.w3.org/2000/svg"
   xmlns:rdf="http://www.w3.org/1999/02/22-rdf-syntax-ns#"
   xmlns:cc="http://creativecommons.org/ns#"
   xmlns:dc="http://purl.org/dc/elements/1.1/">
  <sodipodi:namedview
     id="namedview9"
     pagecolor="#ffffff"
     bordercolor="#666666"
     borderopacity="1.0"
     inkscape:showpageshadow="2"
     inkscape:pageopacity="0.0"
     inkscape:pagecheckerboard="0"
     inkscape:deskcolor="#d1d1d1"
     inkscape:zoom="23.221386"
     inkscape:cx="17.957584"
     inkscape:cy="20.476814"
     inkscape:window-width="1920"
     inkscape:window-height="1017"
     inkscape:window-x="-8"
     inkscape:window-y="-8"
     inkscape:window-maximized="1"
     inkscape:current-layer="Layer_1" />
  <defs
     id="defs1">
    <style
       id="style1">.cls-1{fill:#231f20;}</style>
  </defs>
  <title
     id="title1">Wondicon - UI (Free)</title>
  <path
     class="cls-1"
     d="M 41.424966,12.352948 H 7.052411 c -1.6295713,0 -1.6295713,-2.444358 0,-2.444358 h 34.372555 c 1.629571,0 1.629571,2.444358 0,2.444358 z"
     id="path1"
     style="stroke-width:0.444;stroke:#ffffff;stroke-opacity:1;stroke-dasharray:none"
     sodipodi:nodetypes="sssss" />
  <path
     style="fill:#ffffff;stroke:none;stroke-width:1px;stroke-linecap:butt;stroke-linejoin:miter;stroke-opacity:1"
     d="m 13.239079,7.2955734 v 7.4552886 h 7.455289 V 7.2955734 Z"
     id="path10" />
  <path
     class="cls-1"
     d="M 41.517846,36.796519 H 7.052411 c -1.6295726,0 -1.6295726,-2.44436 0,-2.44436 h 34.465435 c 1.629573,0 1.629573,2.44436 0,2.44436 z"
     id="path3"
     style="stroke-width:0.444;stroke:#ffffff;stroke-opacity:1;stroke-dasharray:none"
     sodipodi:nodetypes="sssss" />
  <path
     style="fill:#ffffff;stroke:none;stroke-width:1px;stroke-linecap:butt;stroke-linejoin:miter;stroke-opacity:1"
     d="m 13.239079,31.846695 v 7.455288 h 7.455288 v -7.455288 z"
     id="path12" />
  <path
     class="cls-1"
     d="M 41.517846,24.574729 H 6.959525 c -1.6265499,-0.003 -1.6265499,-2.441338 0,-2.444353 h 34.558321 c 1.62655,0.003 1.62655,2.441338 0,2.444353 z"
     id="path6"
     style="stroke-width:0.444;stroke:#ffffff;stroke-opacity:1;stroke-dasharray:none"
     sodipodi:nodetypes="ccccc" />
  <path
     style="fill:#ffffff;stroke:none;stroke-width:1px;stroke-linecap:butt;stroke-linejoin:miter;stroke-opacity:1"
     d="m 27.783007,19.563801 v 7.455288 h 7.455289 v -7.455288 z"
     id="path11" />
  <path
     class="cls-1"
     d="M 21.916547,17.195219 H 12.0169 A 1.2221786,1.2221786 0 0 1 10.794721,15.973041 V 6.0733944 A 1.2221786,1.2221786 0 0 1 12.0169,4.8512154 h 9.899647 a 1.2221786,1.2221786 0 0 1 1.222178,1.222179 v 9.8996466 a 1.2221786,1.2221786 0 0 1 -1.222178,1.222178 z m -8.677468,-2.444357 h 7.455289 V 7.2955734 h -7.455289 z"
     id="path7"
     style="stroke-width:0.444;stroke:#ffffff;stroke-opacity:1;stroke-dasharray:none" />
  <path
     class="cls-1"
     d="M 21.916547,41.746339 H 12.0169 a 1.2221786,1.2221786 0 0 1 -1.222179,-1.22217 v -9.89965 a 1.2221786,1.2221786 0 0 1 1.222179,-1.22218 h 9.899647 a 1.2221786,1.2221786 0 0 1 1.222178,1.22218 v 9.89965 a 1.2221786,1.2221786 0 0 1 -1.222178,1.22217 z m -8.677468,-2.44435 h 7.455289 v -7.45529 h -7.455289 z"
     id="path8"
     style="stroke-width:0.444;stroke:#ffffff;stroke-opacity:1;stroke-dasharray:none" />
  <path
     class="cls-1"
     d="m 36.460476,29.463449 h -9.89965 a 1.2221786,1.2221786 0 0 1 -1.22218,-1.22218 v -9.899646 a 1.2221786,1.2221786 0 0 1 1.22218,-1.222179 h 9.89965 a 1.2221786,1.2221786 0 0 1 1.22217,1.222179 v 9.899646 a 1.2221786,1.2221786 0 0 1 -1.22217,1.22218 z m -8.67747,-2.44436 h 7.45529 v -7.455288 h -7.45529 z"
     id="path9"
     style="stroke-width:0.444;stroke:#ffffff;stroke-opacity:1;stroke-dasharray:none" />
  <metadata
     id="metadata9">
    <rdf:RDF>
      <cc:Work
         rdf:about="">
        <dc:title>Wondicon - UI (Free)</dc:title>
      </cc:Work>
    </rdf:RDF>
  </metadata>
</svg>
