<?xml version="1.0" encoding="UTF-8" standalone="no"?>
<!-- Created with Inkscape (http://www.inkscape.org/) -->

<svg
   width="48"
   height="48"
   viewBox="0 0 12.7 12.7"
   version="1.1"
   id="svg1"
   xml:space="preserve"
   sodipodi:docname="pdf-icon.svg"
   inkscape:version="1.3 (0e150ed6c4, 2023-07-21)"
   xmlns:inkscape="http://www.inkscape.org/namespaces/inkscape"
   xmlns:sodipodi="http://sodipodi.sourceforge.net/DTD/sodipodi-0.dtd"
   xmlns="http://www.w3.org/2000/svg"
   xmlns:svg="http://www.w3.org/2000/svg"><sodipodi:namedview
     id="namedview1"
     pagecolor="#ffffff"
     bordercolor="#666666"
     borderopacity="1.0"
     inkscape:showpageshadow="2"
     inkscape:pageopacity="0.0"
     inkscape:pagecheckerboard="0"
     inkscape:deskcolor="#d1d1d1"
     inkscape:document-units="mm"
     inkscape:zoom="11.702245"
     inkscape:cx="21.363422"
     inkscape:cy="19.611622"
     inkscape:window-width="1920"
     inkscape:window-height="1017"
     inkscape:window-x="-8"
     inkscape:window-y="-8"
     inkscape:window-maximized="1"
     inkscape:current-layer="rect1" /><defs
     id="defs1"><inkscape:path-effect
       effect="bspline"
       id="path-effect2"
       is_visible="true"
       lpeversion="1.3"
       weight="33.333333"
       steps="2"
       helper_size="0"
       apply_no_weight="true"
       apply_with_weight="true"
       only_selected="false"
       uniform="false" /></defs><g
     inkscape:label="Calque 1"
     inkscape:groupmode="layer"
     id="layer1"><g
       id="rect1"><path
         style="color:#000000;fill:#ffffff;stroke-linejoin:round;-inkscape-stroke:none;fill-opacity:1"
         d="m 1.9827347,0.5110656 h 9.0664583 c 0.137783,0 0.248706,0.11092281 0.248706,0.24870585 V 11.940229 c 0,0.137783 -0.110923,0.248705 -0.248706,0.248705 H 1.9827347 c -0.1377831,0 -0.2487059,-0.110922 -0.2487059,-0.248705 V 0.75977145 c 0,-0.13778304 0.1109228,-0.24870585 0.2487059,-0.24870585 z"
         id="path1" /><path
         style="color:#000000;fill:#d9d9d9;stroke-linejoin:round;-inkscape-stroke:none;fill-opacity:1"
         d="m 1.9824219,0.24609375 c -0.2797407,0 -0.5136719,0.23393124 -0.5136719,0.51367187 V 11.939453 c 0,0.279741 0.2339312,0.513672 0.5136719,0.513672 h 9.0664061 c 0.279741,0 0.513672,-0.233931 0.513672,-0.513672 V 0.75976562 c 0,-0.27974063 -0.233931,-0.51367187 -0.513672,-0.51367187 z m 0.015625,0.52929687 H 11.033203 V 11.923828 H 1.9980469 Z"
         id="path3" /></g><g
       id="rect2"><path
         style="color:#000000;fill:#e10000;stroke-linejoin:round;-inkscape-stroke:none"
         d="m 1.9827347,10.643479 h 9.0664583 c 0.137783,0 0.248706,0.110923 0.248706,0.248706 v 1.070653 c 0,0.137783 -0.110923,0.248706 -0.248706,0.248706 H 1.9827347 c -0.1377831,0 -0.2487059,-0.110923 -0.2487059,-0.248706 v -1.070653 c 0,-0.137783 0.1109228,-0.248706 0.2487059,-0.248706 z"
         id="path4" /><path
         style="color:#000000;fill:#e10000;stroke-linejoin:round;-inkscape-stroke:none"
         d="m 1.9824219,10.382813 c -0.2778174,0 -0.5097657,0.231948 -0.5097657,0.509765 v 1.070313 c 0,0.277817 0.2319483,0.509765 0.5097657,0.509765 h 9.0664061 c 0.277817,0 0.509766,-0.231948 0.509766,-0.509765 v -1.070313 c 0,-0.277817 -0.231949,-0.509765 -0.509766,-0.509765 z m 0.011719,0.521484 h 9.0429684 v 1.046875 H 1.9941406 Z"
         id="path5" /></g><path
       style="color:#000000;fill:#e10000;-inkscape-stroke:none"
       d="M 6.1660156,2.1132813 C 6.032699,2.155849 5.896049,2.2891394 5.8613281,2.5058594 c -0.034721,0.21672 0.00616,0.5157246 0.1621094,0.96875 C 6.0762729,3.628091 6.237951,3.833731 6.3144531,4.015625 6.2589718,4.3157655 6.2786223,4.4757749 6.1855469,4.8339844 5.9492038,5.7435726 5.6039013,6.8083071 5.234375,7.6054687 5.1873828,7.7068428 5.143569,7.7062122 5.0957031,7.7988281 4.819671,7.9277455 4.4707752,8.0379912 4.2597656,8.1523438 3.8416225,8.3789483 3.589826,8.558707 3.4414063,8.7246094 3.3671964,8.8075606 3.3185332,8.8891322 3.296875,8.9746094 3.2752168,9.0600866 3.2854367,9.1483321 3.3183594,9.21875 3.4500493,9.5004195 3.8695277,9.5990014 4.2792969,9.3515625 4.6135796,9.1497061 4.936867,8.6091949 5.2539062,8.0175781 6.0540486,7.646589 6.9497036,7.2316767 7.6542969,7.0019531 7.8296683,6.9447755 7.9038278,6.945462 8.0449219,6.9082031 8.2291569,7.0747396 8.4217547,7.2840514 8.5800781,7.3359375 8.8277146,7.4170934 9.0436848,7.3678946 9.1933594,7.2851562 9.343034,7.2024179 9.4468126,7.0852124 9.4746094,6.9433594 9.5024062,6.8015064 9.4306362,6.6464687 9.2949219,6.5644531 9.1580804,6.4817563 8.9693981,6.4556885 8.6972656,6.4824219 8.5522248,6.4966702 8.2992812,6.5758273 8.0976563,6.625 8.0403399,6.5655784 8.0094231,6.5782283 7.9472656,6.5019531 7.4678937,5.9137017 6.9566912,4.8290225 6.5859375,3.9667969 6.6634945,3.5328187 6.7992062,3.0071486 6.7753906,2.734375 6.7544609,2.4946545 6.6870539,2.3197475 6.5742187,2.2089844 6.4613836,2.0982213 6.2995702,2.0706375 6.1660156,2.1132813 Z m 0.082031,0.2519531 c 0.056115,-0.017917 0.092419,-0.014117 0.140625,0.033203 0.048206,0.047321 0.1055222,0.1567018 0.1230468,0.3574219 0.014034,0.1607349 -0.096787,0.568632 -0.1308593,0.8320312 C 6.3578189,3.5271184 6.2925877,3.4423481 6.2734375,3.3867188 6.1249573,2.9553986 6.1001704,2.6896651 6.1230469,2.546875 c 0.022876,-0.1427901 0.068647,-0.1636472 0.125,-0.1816406 z m 0.2714843,2.03125 c 0.3762895,0.8147052 0.7743709,1.7213801 1.2226563,2.2714843 0.015145,0.018584 0.02605,0.013522 0.041016,0.03125 C 7.7000202,6.7239128 7.6643259,6.7199849 7.5722656,6.75 6.9600669,6.9495995 6.2331797,7.3026559 5.5058594,7.625 5.8720837,6.814715 6.209759,5.7919066 6.4414062,4.9003906 6.4971205,4.6859692 6.4759759,4.5923575 6.5195312,4.3964844 Z m 2.2031251,2.3496093 c 0.2416533,-0.023739 0.374188,0.00784 0.4355468,0.044922 0.062486,0.037762 0.064495,0.059528 0.056641,0.099609 -0.00785,0.040082 -0.050391,0.1087837 -0.1503907,0.1640625 -0.1,0.055279 -0.2227454,0.088155 -0.4023437,0.029297 -0.077082,-0.025261 -0.207482,-0.1790933 -0.3066406,-0.25 0.1089061,-0.021827 0.2841353,-0.079732 0.3671875,-0.087891 z M 4.8007812,8.2089844 C 4.5729708,8.5551302 4.3336971,9.0095929 4.1425781,9.125 3.8255468,9.3164392 3.6007013,9.197485 3.5585938,9.1074219 c -0.010527,-0.022515 -0.013431,-0.036524 -0.00586,-0.066406 0.00757,-0.029882 0.03086,-0.077106 0.085937,-0.1386718 C 3.7488275,8.7792127 3.98178,8.6042143 4.3867187,8.3847656 4.4893945,8.3291225 4.6784478,8.269771 4.8007812,8.2089844 Z"
       id="path2"
       transform="translate(0.1331144,-0.27696809)" /><rect
       style="fill:#e10000;fill-opacity:1;stroke:none;stroke-width:0.529;stroke-linejoin:round;stroke-dasharray:none;stroke-opacity:1"
       id="rect3"
       width="10.085705"
       height="0.90106177"
       x="1.4731121"
       y="10.382563"
       ry="0" /><path
       d="m 5.7339269,11.173866 q 0,0.08527 -0.030145,0.158475 -0.029283,0.07235 -0.082682,0.125746 -0.066318,0.06632 -0.1567519,0.09991 -0.090434,0.03273 -0.2282377,0.03273 H 5.0655779 V 12.06873 H 4.8950456 v -1.282437 h 0.3479549 q 0.1154107,0 0.1955093,0.01981 0.080099,0.01895 0.1421102,0.06029 0.073208,0.04909 0.112827,0.122301 0.04048,0.07321 0.04048,0.185174 z m -0.1774225,0.0043 q 0,-0.06632 -0.023254,-0.115411 -0.023255,-0.04909 -0.070625,-0.0801 -0.041341,-0.0267 -0.09474,-0.0379 -0.052538,-0.01206 -0.1334976,-0.01206 H 5.0655779 v 0.512459 h 0.1438329 q 0.1033529,0 0.1679485,-0.01809 0.064596,-0.01895 0.1050755,-0.05943 0.04048,-0.04134 0.056844,-0.08699 0.017225,-0.04565 0.017225,-0.102491 z m 1.4856984,0.25063 q 0,0.174839 -0.076653,0.316949 -0.075792,0.142111 -0.2023995,0.220487 -0.08785,0.05426 -0.1963706,0.07838 Q 6.45912,12.06873 6.2825588,12.06873 H 5.9587196 v -1.282437 h 0.3203941 q 0.1877578,0 0.2980009,0.02756 0.1111044,0.0267 0.1877578,0.07407 0.1309138,0.08182 0.2041221,0.217903 0.073208,0.136081 0.073208,0.322977 z M 6.863919,11.42622 q 0,-0.150723 -0.052538,-0.254076 -0.052538,-0.103353 -0.156752,-0.162781 -0.075792,-0.04306 -0.1610583,-0.05943 -0.085266,-0.01723 -0.204122,-0.01723 H 6.1292519 v 0.989605 H 6.289449 q 0.1231622,0 0.2144573,-0.01809 0.092156,-0.01809 0.1688098,-0.06718 0.095601,-0.06115 0.1429715,-0.161059 0.048231,-0.09991 0.048231,-0.249769 z M 8.1368826,10.937877 H 7.488343 v 0.361735 h 0.5572445 v 0.151585 H 7.488343 V 12.06873 H 7.3178106 v -1.282437 h 0.819072 z"
       id="text2"
       style="fill:#ffffff;stroke-width:0.264583"
       aria-label="PDF" /></g></svg>
