<?xml version="1.0" encoding="UTF-8" standalone="no"?>
<!-- Creator: CorelDRAW -->

<svg
   xml:space="preserve"
   width="48"
   height="48"
   style="clip-rule:evenodd;fill-rule:evenodd;image-rendering:optimizeQuality;shape-rendering:geometricPrecision;text-rendering:geometricPrecision"
   viewBox="0 0 0.50000002 0.49999997"
   version="1.1"
   id="svg10"
   sodipodi:docname="preference-icon.svg"
   inkscape:version="1.3 (0e150ed6c4, 2023-07-21)"
   xmlns:inkscape="http://www.inkscape.org/namespaces/inkscape"
   xmlns:sodipodi="http://sodipodi.sourceforge.net/DTD/sodipodi-0.dtd"
   xmlns="http://www.w3.org/2000/svg"
   xmlns:svg="http://www.w3.org/2000/svg"><sodipodi:namedview
   id="namedview10"
   pagecolor="#ffffff"
   bordercolor="#666666"
   borderopacity="1.0"
   inkscape:showpageshadow="2"
   inkscape:pageopacity="0.0"
   inkscape:pagecheckerboard="0"
   inkscape:deskcolor="#d1d1d1"
   inkscape:document-units="in"
   inkscape:zoom="14.173223"
   inkscape:cx="29.774456"
   inkscape:cy="20.496397"
   inkscape:window-width="1920"
   inkscape:window-height="1017"
   inkscape:window-x="-8"
   inkscape:window-y="-8"
   inkscape:window-maximized="1"
   inkscape:current-layer="Layer_x0020_1" />&#10; <defs
   id="defs1">&#10;  <style
   type="text/css"
   id="style1">&#10;   <![CDATA[
    .fil6 {fill:none}
    .fil3 {fill:#8196A0}
    .fil2 {fill:#90A4AE}
    .fil1 {fill:#D3DADE}
    .fil0 {fill:#DDE2E4}
    .fil5 {fill:#DDE3E7}
    .fil4 {fill:#EDEFF0}
   ]]>&#10;  </style>&#10; </defs>&#10; <g
   id="Layer_x0020_1"
   inkscape:label="Layer 1"
   inkscape:groupmode="layer">&#10;  <metadata
   id="CorelCorpID_0Corel-Layer" />&#10;  &#10;  &#10;  &#10;  &#10;  &#10;  &#10;  &#10;  &#10;  &#10;  &#10;  &#10;  &#10;  &#10;  &#10;  &#10;  &#10;  &#10;  &#10;  &#10;  &#10;  &#10;  &#10;  <path
   class="fil2"
   d="m 0.44645829,0.28008435 v -0.0535124 l -0.0453554,-0.005065 c -0.003589,-0.0187301 -0.0106461,-0.0362243 -0.020478,-0.051795 L 0.40973308,0.13329154 0.37189353,0.09545202 0.33595733,0.12417164 C 0.32075654,0.114152 0.30362924,0.10681776 0.28525692,0.10283654 l -0.005286,-0.04737229 h -0.0535117 l -0.005284,0.04737229 c -0.0177672,0.003853 -0.0343742,0.0108382 -0.0491965,0.0203528 L 0.13318581,0.09218422 0.09534626,0.13002374 0.12636355,0.16883289 c -0.009186,0.0143255 -0.0160101,0.0303167 -0.0199268,0.0474137 L 0.05536002,0.2219456 V 0.275458 l 0.05049701,0.005637 c 0.003551,0.0169104 0.009938,0.0327761 0.0186424,0.047078 L 0.09208221,0.3687352 0.12992176,0.4065747 0.16934146,0.3750666 c 0.0141116,0.009478 0.0299099,0.0166376 0.0468581,0.020921 l 0.005647,0.0505747 h 0.0535117 l 0.005409,-0.0485097 c 0.0178511,-0.003307 0.0346017,-0.009755 0.0496531,-0.0187552 l 0.0382109,0.0305383 0.0378396,-0.0378395 -0.0292393,-0.0365831 c 0.0103288,-0.0149673 0.0180181,-0.0318969 0.0223933,-0.0501127 l 0.0468384,-0.005214 z"
   id="path8"
   style="fill:#414f58;fill-opacity:1;stroke-width:0.10071" />&#10;  &#10;  <circle
   class="fil4"
   cx="0.25321692"
   cy="0.25"
   r="0.078987785"
   id="circle9"
   style="stroke-width:0.10071" />&#10;  &#10;  &#10;  &#10;  &#10;  &#10;  &#10;  &#10;  &#10;  &#10;  &#10;  &#10;  &#10; </g>&#10; &#10;</svg>
