<svg height="512" width="402" xmlns="http://www.w3.org/2000/svg"><path d="m13.9634323 511.7172852c123.1425095-29.5710144 248.4763794-36.7237244 375.0788574-25.6740112 6.9842529.8193054 12.9680481-5.3848572 12.9577026-11.322998v-432.0962182c0-5.2842407-4.1351624-9.8726616-9.2799377-11.0759163-127.1038131-28.4337783-254.868721-38.9541192-382.4324455-26.1740952-5.8368173.650631-10.0008934 5.0749617-10.2876091 11.3225346v483.9443054c.0005582 7.0995007 6.3529363 12.7011547 13.9634323 11.0763989zm364.7912369-49.4484253c-78.936676-6.7237244-158.3724213-5.3621216-237.4571228 4.0058594v-443.3030091c79.3641815 1.3580036 158.8108521 10.9397583 237.4571228 28.7088089zm-31.8062439-363.132927c-57.1670837-10.2954407-115.4209595-16.3479233-173.1439209-17.9905929-15.0106354-1.8704224-14.6300354-22.117897.6468964-22.7400017 58.8547668 1.6744766 118.2483063 7.8453789 176.5290985 18.3409538 14.89151 3.5281677 10.6624756 24.4089966-4.032074 22.3896408zm-172.752945 14.5266495c58.8298187.7144165 118.2947845 5.9135132 176.6049347 15.4524536 14.9554138 3.6207581 11.3333435 24.0187683-3.6719055 22.4512939-57.1915588-9.3559265-115.4434814-14.4552002-173.1385498-15.155426-15.2067261-.9851837-14.6867676-22.1859131.2055206-22.7483215zm-80.8744812-31.9926834c-15.0952454.6297607-46.2731972 2.8287964-46.2731972 2.8287964-14.5621643-.77034-15.4772091-20.9013252-.9116135-22.7125969 15.2860832-1.2458267 30.8422737-2.2034378 46.2364998-2.8454361 15.4141084.2303009 15.5920182 21.7221947.9483109 22.7292366zm.1844788 56.5847854c-15.0389709.8719788-46.4586525 3.5867615-46.4586525 3.5867615-14.0537529-.7902374-15.9711533-20.2751617-1.093647-22.695961 15.3423576-1.5007629 30.898056-2.7128296 46.2350311-3.6024246 15.388916-.0331116 16.2642746 21.1006012 1.3172684 22.7116241zm253.8021088 65.7170868c-57.2277527-8.4262085-115.5070648-12.5656738-173.1556549-12.3234558-14.9676056-.9036865-15.3404999-21.7388611-.0729065-22.749054 58.8009491-.2603149 118.1900482 3.9738312 176.5422821 12.5654297 14.6963806 2.8465882 11.7958984 23.9307404-3.3137207 22.5070801zm.1810608 52.3834229c-57.1768799-7.4837646-115.4243927-10.6780853-173.1267853-9.4875641-15.0598145-.7169189-15.6835022-21.5478363-.467804-22.7448883 58.8415527-1.2100983 118.2389984 2.0444031 176.5462189 9.6754608 14.9604492 2.5631561 11.9157104 23.8219147-2.9516296 22.5569916zm.1830139 52.4098511c-57.210144-6.5442505-115.4596252-8.7843933-173.1248474-6.659729-15.0860596.5559082-15.9237976-22.1782227-.8377228-22.7341309 58.807312-2.1647949 118.2057343.1174316 176.548172 6.7928162 14.9718628 2.6849975 12.5200806 23.3592834-2.5856018 22.6010437z"/></svg>