<?xml version="1.0" encoding="UTF-8" standalone="no"?>
<svg
   version="1.2"
   viewBox="0 0 48 48"
   id="svg50"
   sodipodi:docname="rename-icon.svg"
   width="48"
   height="48"
   inkscape:version="1.3 (0e150ed6c4, 2023-07-21)"
   xmlns:inkscape="http://www.inkscape.org/namespaces/inkscape"
   xmlns:sodipodi="http://sodipodi.sourceforge.net/DTD/sodipodi-0.dtd"
   xmlns="http://www.w3.org/2000/svg"
   xmlns:svg="http://www.w3.org/2000/svg">
  <sodipodi:namedview
     id="namedview50"
     pagecolor="#ffffff"
     bordercolor="#666666"
     borderopacity="1.0"
     inkscape:showpageshadow="2"
     inkscape:pageopacity="0.0"
     inkscape:pagecheckerboard="0"
     inkscape:deskcolor="#d1d1d1"
     inkscape:zoom="8.1589244"
     inkscape:cx="21.142493"
     inkscape:cy="37.750074"
     inkscape:window-width="1419"
     inkscape:window-height="1038"
     inkscape:window-x="485"
     inkscape:window-y="0"
     inkscape:window-maximized="0"
     inkscape:current-layer="svg50" />
  <defs
     id="defs1" />
  <rect
     style="fill:#ffffff;stroke:none;stroke-width:0.444;stroke-linecap:square;stroke-linejoin:round;paint-order:markers stroke fill"
     id="rect1"
     width="39.295429"
     height="14.40243"
     x="4.3516874"
     y="16.277168" />
  <path
     id="rect4"
     style="fill:#000000;fill-rule:evenodd;stroke:none;stroke-width:0.106591;stroke-linecap:square;stroke-linejoin:miter;paint-order:stroke fill markers"
     d="m 8.7447017,20.706164 h 8.6444163 c 0,0 0,0 0,0 v 5.544439 c 0,0 0,0 0,0 H 8.7447017 c 0,0 0,0 0,0 z" />
  <path
     style="color:#000000;fill:#000000;fill-rule:evenodd;stroke:#000000;stroke-width:0.611751;stroke-linecap:square;stroke-linejoin:bevel;-inkscape-stroke:none"
     d="m 3.557128,14.686855 -0.7957539,0.79456 v 15.993936 l 0.7957539,0.794558 h 40.885743 l 0.795755,-0.794558 V 15.481415 l -0.795755,-0.79456 z m 0.7945594,1.590313 H 43.647115 v 14.40243 H 4.3516874 Z"
     id="rect6" />
  <path
     style="color:#000000;fill:#000000;fill-rule:evenodd;stroke:#000000;stroke-width:0.611751;stroke-linecap:square;stroke-linejoin:bevel;-inkscape-stroke:none"
     d="M 35.918937,7.2965316 33.579472,8.7052315 31.316469,7.3037018 30.317602,8.9155205 33.565135,10.927607 36.897498,8.9214945 Z"
     id="path6" />
  <path
     style="color:#000000;fill:#000000;fill-rule:evenodd;stroke:#000000;stroke-width:0.611751;stroke-linecap:square;stroke-linejoin:bevel;-inkscape-stroke:none"
     d="m 35.918937,40.284022 -2.339465,-1.4087 -2.263003,1.40153 -0.998867,-1.611819 3.247533,-2.012086 3.332363,2.006112 z"
     id="path7" />
  <rect
     style="fill:#000000;fill-opacity:1;fill-rule:evenodd;stroke:none;stroke-width:2.40069;stroke-linecap:square;stroke-linejoin:bevel;stroke-dasharray:none;stroke-opacity:1"
     id="rect9"
     width="3.2354996"
     height="29.77585"
     x="31.99082"
     y="9.1120749" />
</svg>
