<?xml version="1.0" encoding="UTF-8" standalone="no"?>
<svg
   width="48"
   height="48"
   viewBox="0 0 48 48"
   version="1.1"
   id="svg1"
   sodipodi:docname="scanner-icon.svg"
   inkscape:version="1.3 (0e150ed6c4, 2023-07-21)"
   xml:space="preserve"
   xmlns:inkscape="http://www.inkscape.org/namespaces/inkscape"
   xmlns:sodipodi="http://sodipodi.sourceforge.net/DTD/sodipodi-0.dtd"
   xmlns="http://www.w3.org/2000/svg"
   xmlns:svg="http://www.w3.org/2000/svg"><defs
     id="defs1" /><sodipodi:namedview
     id="namedview1"
     pagecolor="#ffffff"
     bordercolor="#666666"
     borderopacity="1.0"
     inkscape:showpageshadow="2"
     inkscape:pageopacity="0.0"
     inkscape:pagecheckerboard="0"
     inkscape:deskcolor="#d1d1d1"
     inkscape:zoom="8.5520833"
     inkscape:cx="20.989038"
     inkscape:cy="36.891596"
     inkscape:window-width="1920"
     inkscape:window-height="1017"
     inkscape:window-x="-8"
     inkscape:window-y="-8"
     inkscape:window-maximized="1"
     inkscape:current-layer="svg1" /><rect
     style="fill:#ffffff;stroke:none;stroke-width:1.00157;stroke-linecap:round;stroke-linejoin:round;stroke-opacity:1;fill-opacity:1"
     id="rect1"
     width="43.974609"
     height="25.138672"
     x="2.0117188"
     y="11.666016"
     rx="6.1593468e-08"
     ry="6.1593468e-08" /><path
     style="color:#000000;fill:#ff1111;-inkscape-stroke:none"
     d="m 31.888672,35.694101 c 0.519412,0.115918 1.054529,0.0897 1.582031,-0.111328 1.055004,-0.402056 1.996645,-1.381781 2.949219,-2.75 0.952574,-1.36822 1.904076,-3.145458 2.867187,-5.199219 1.926224,-4.107522 3.890295,-9.327713 5.851563,-14.541015 l -0.935547,-0.351563 c -1.961268,5.213302 -3.921598,10.419889 -5.820312,14.46875 -0.949358,2.024431 -1.884278,3.759619 -2.783204,5.050781 -0.898926,1.291163 -1.773228,2.117658 -2.484375,2.388672 -0.711147,0.271014 -1.34071,0.111405 -2.095703,-0.478515 -0.754993,-0.589921 -1.558303,-1.626824 -2.351562,-2.964844 -1.586518,-2.676041 -3.157552,-6.5332 -4.728516,-10.400391 l -0.925781,0.376953 c 1.570964,3.867191 3.141949,7.745071 4.794922,10.533203 0.826486,1.394067 1.667998,2.520796 2.59375,3.244141 0.462876,0.361672 0.966916,0.618457 1.486328,0.734375 z"
     id="path24" /><path
     style="color:#000000;fill:#d2ffd2;fill-opacity:1;stroke-width:1.6849;-inkscape-stroke:none"
     d="m 3.0477326,12.740976 v 2.838905 H 16.938358 v -2.838905 z"
     id="path30" /><path
     style="color:#000000;fill:#000000;-inkscape-stroke:none"
     d="m 3.130415,19.507117 v 1 H 17.02104 v -1 z"
     id="path32" /><path
     style="color:#000000;fill:#000000;-inkscape-stroke:none"
     d="m 3.130415,23.971967 v 1 H 17.02104 v -1 z"
     id="path34" /><path
     style="color:#000000;fill:#000000;-inkscape-stroke:none"
     d="m 3.130415,28.436817 v 1 H 17.02104 v -1 z"
     id="path36" /><path
     style="color:#000000;fill:#4d4d4d;-inkscape-stroke:none"
     d="m 3.130415,33.364053 v 1 H 17.02104 v -1 z"
     id="path37" /><path
     style="color:#000000;fill:#a6a6a6;-inkscape-stroke:none;stroke:none;stroke-opacity:1"
     d="m 1.453125,9.6660156 c -0.78054263,0 -1.43945312,0.6589124 -1.43945312,1.4394534 v 26.257812 c -1e-8,0.78054 0.65891322,1.439453 1.43945312,1.439453 h 45.091797 c 0.780541,0 1.439453,-0.65891 1.439453,-1.439453 V 11.105469 c 0,-0.780544 -0.65891,-1.4394534 -1.439453,-1.4394534 z M 2.0117188,11.666016 H 45.986328 V 36.804687 H 2.0117188 Z"
     id="rect37" /><path
     style="color:#000000;fill:#a6a6a6;-inkscape-stroke:none"
     d="m 18.768228,11.568359 v 25.357422 h 1.909506 V 11.568359 Z"
     id="path38"
     sodipodi:nodetypes="ccccc" /></svg>
