<?xml version="1.0" encoding="UTF-8" standalone="no"?>
<svg
   width="48"
   height="48"
   viewBox="0 0 48 48"
   version="1.1"
   id="svg1"
   sodipodi:docname="slider-icon.svg"
   inkscape:version="1.3 (0e150ed6c4, 2023-07-21)"
   xmlns:inkscape="http://www.inkscape.org/namespaces/inkscape"
   xmlns:sodipodi="http://sodipodi.sourceforge.net/DTD/sodipodi-0.dtd"
   xmlns="http://www.w3.org/2000/svg"
   xmlns:svg="http://www.w3.org/2000/svg">
  <defs
     id="defs1" />
  <sodipodi:namedview
     id="namedview1"
     pagecolor="#ffffff"
     bordercolor="#666666"
     borderopacity="1.0"
     inkscape:showpageshadow="2"
     inkscape:pageopacity="0.0"
     inkscape:pagecheckerboard="0"
     inkscape:deskcolor="#d1d1d1"
     inkscape:zoom="12.094472"
     inkscape:cx="18.355493"
     inkscape:cy="23.275095"
     inkscape:window-width="1920"
     inkscape:window-height="1017"
     inkscape:window-x="-8"
     inkscape:window-y="-8"
     inkscape:window-maximized="1"
     inkscape:current-layer="svg1" />
  <rect
     style="fill:#ffffff;stroke-width:1.999"
     id="rect1"
     width="8.1855574"
     height="7.4827571"
     x="19.907221"
     y="17.156597" />
  <path
     fill-rule="evenodd"
     d="m 32.623379,21.056662 c 0,3.754674 -2.399625,6.948884 -5.74892,8.132692 v 14.862984 c 0,1.587523 -1.286938,2.87446 -2.874459,2.87446 -1.587522,0 -2.87446,-1.286937 -2.87446,-2.87446 V 29.189354 c -3.349299,-1.183808 -5.748919,-4.378018 -5.748919,-8.132692 0,-3.754673 2.39962,-6.948885 5.748919,-8.132693 V 3.8099039 c 0,-1.58752 1.286938,-2.87445934 2.87446,-2.87445934 1.587521,0 2.874459,1.28693934 2.874459,2.87445934 v 9.1140651 c 3.349296,1.183808 5.74892,4.37802 5.74892,8.132693 z M 24,23.931121 c 1.587521,0 2.874459,-1.286936 2.874459,-2.874459 0,-1.587521 -1.286938,-2.87446 -2.874459,-2.87446 -1.587522,0 -2.87446,1.286939 -2.87446,2.87446 0,1.587523 1.286938,2.874459 2.87446,2.874459 z"
     id="path1"
     sodipodi:nodetypes="ccscssscscssscsccsssss"
     style="stroke-width:2.87447" />
</svg>
