<?xml version="1.0" encoding="UTF-8" standalone="no"?>
<svg
   width="48"
   height="48"
   viewBox="0 0 48 48"
   version="1.1"
   id="svg1"
   sodipodi:docname="write-icon.svg"
   inkscape:version="1.3 (0e150ed6c4, 2023-07-21)"
   xmlns:inkscape="http://www.inkscape.org/namespaces/inkscape"
   xmlns:sodipodi="http://sodipodi.sourceforge.net/DTD/sodipodi-0.dtd"
   xmlns="http://www.w3.org/2000/svg"
   xmlns:svg="http://www.w3.org/2000/svg">
  <defs
     id="defs1" />
  <sodipodi:namedview
     id="namedview1"
     pagecolor="#ffffff"
     bordercolor="#666666"
     borderopacity="1.0"
     inkscape:showpageshadow="2"
     inkscape:pageopacity="0.0"
     inkscape:pagecheckerboard="0"
     inkscape:deskcolor="#d1d1d1"
     inkscape:zoom="6.0472361"
     inkscape:cx="35.388068"
     inkscape:cy="59.614011"
     inkscape:window-width="1920"
     inkscape:window-height="1017"
     inkscape:window-x="-8"
     inkscape:window-y="-8"
     inkscape:window-maximized="1"
     inkscape:current-layer="svg1" />
  <path
     d="M 5.2444439,41.567002 H 42.755553 c 1.294803,0 2.344445,1.089515 2.344445,2.4335 0,1.343985 -1.049642,2.4335 -2.344445,2.4335 H 5.2444439 c -1.2948004,0 -2.344444,-1.089515 -2.344444,-2.4335 0,-1.343985 1.0496436,-2.4335 2.344444,-2.4335 z"
     style="display:inline;fill:#ffffff;fill-opacity:1;fill-rule:evenodd;stroke-width:2.33333"
     id="path1-4" />
  <path
     style="fill:#ffffff;stroke:none;stroke-width:1px;stroke-linecap:butt;stroke-linejoin:miter;stroke-opacity:1;fill-opacity:1"
     d="M 8.1031382,38.902724 20.760736,36.692 43.268069,14.184667 42.222736,4.779 32.817069,3.7336667 10.309736,26.241 Z"
     id="path2" />
  <path
     fill-rule="evenodd"
     d="m 14.024402,28.299 -1.404666,6.078333 6.080666,-1.4 14.767667,-14.767666 -4.676,-4.678334 z M 35.703403,6.62 l -4.025,4.025 4.676,4.676 4.025,-4.025 c 0.466666,-0.464333 0.536666,-1.010333 0.536666,-1.292667 0,-0.282333 -0.07,-0.8259997 -0.536666,-1.2926663 L 38.288736,6.62 C 37.824403,6.1533333 37.278403,6.0833333 36.996069,6.0833333 c -0.282333,0 -0.826,0.07 -1.292666,0.5366667 z M 20.760736,36.692 9.4767358,39.296 c -0.1143334,0.02567 -0.2263334,0.03733 -0.3383334,0.03733 -0.917,0 -1.652,-0.861 -1.4326666,-1.810666 L 10.309736,26.241 32.817069,3.7336667 C 33.969736,2.5786667 35.484069,2 36.996069,2 c 1.514334,0 3.026334,0.5786667 4.181334,1.7336667 l 2.090666,2.0906666 c 2.307667,2.3076667 2.307667,6.0503337 0,8.3603337 z M 5.3333333,41.666667 H 42.666667 C 43.955332,41.666667 45,42.711335 45,44 c 0,1.288665 -1.044668,2.333333 -2.333333,2.333333 H 5.3333333 C 4.044669,46.333333 3,45.288665 3,44 3,42.711335 4.044669,41.666667 5.3333333,41.666667 Z"
     id="path1"
     style="stroke-width:2.33333"
     sodipodi:nodetypes="ccccccscccsscssccscccsssccsssssss" />
</svg>
